<?xml version="1.0" encoding="UTF-8" standalone="no"?>
<!DOCTYPE svg PUBLIC "-//W3C//DTD SVG 1.1//EN" "http://www.w3.org/Graphics/SVG/1.1/DTD/svg11.dtd">

<!-- Created with Vectornator (http://vectornator.io/) -->
<svg height="100%" stroke-miterlimit="10" style="fill-rule:nonzero;clip-rule:evenodd;stroke-linecap:round;stroke-linejoin:round;" version="1.1" viewBox="0 0 700 700" width="100%" xml:space="preserve" xmlns="http://www.w3.org/2000/svg" xmlns:vectornator="http://vectornator.io" xmlns:xlink="http://www.w3.org/1999/xlink">
<metadata>
<vectornator:setting key="IsTimeLapseWatermarkDisabled" value="false"/>
<vectornator:setting key="UndoHistoryDisabled" value="true"/>
<vectornator:setting key="VNDimensionsVisible" value="true"/>
<vectornator:setting key="VNSnapToGuides" value="true"/>
<vectornator:setting key="WDCMYKEnabledKey" value="false"/>
<vectornator:setting key="WDDisplayWhiteBackground" value="false"/>
<vectornator:setting key="WDDynamicGuides" value="false"/>
<vectornator:setting key="WDGuidesVisible" value="true"/>
<vectornator:setting key="WDIsolateActiveLayer" value="false"/>
<vectornator:setting key="WDOutlineMode" value="false"/>
<vectornator:setting key="WDRulersVisible" value="true"/>
<vectornator:setting key="WDSnapToEdges" value="false"/>
<vectornator:setting key="WDSnapToGrid" value="false"/>
<vectornator:setting key="WDSnapToPoints" value="false"/>
<vectornator:setting key="WDUnits" value="Points"/>
</metadata>
<defs/>
<g id="Untitled" vectornator:layerName="Untitled">
<g opacity="1">
<path d="M310.84 280.3L175.56 280.3L330.42 28L524.44 28L350 222.13L504.86 222.13L194.55 532.01L310.84 280.3Z" fill="#000000" fill-opacity="0" fill-rule="evenodd" opacity="1" stroke="none"/>
<path d="M88.766 642.875C87.7973 643.375 86.7855 643.75 85.7348 644C84.6918 644.258 83.5981 644.391 82.4536 644.391C79.0552 644.391 76.3638 643.445 74.3755 641.547C72.3833 639.641 71.3911 637.062 71.3911 633.812C71.3911 630.555 72.3833 627.977 74.3755 626.078C76.3638 624.172 79.0552 623.219 82.4536 623.219C83.5981 623.219 84.6919 623.351 85.7348 623.609C86.7856 623.859 87.7973 624.234 88.766 624.734L88.766 628.953C87.7855 628.297 86.8207 627.812 85.8754 627.5C84.9262 627.187 83.9262 627.031 82.8754 627.031C81.0004 627.031 79.5238 627.637 78.4535 628.844C77.3793 630.043 76.8441 631.699 76.8441 633.812C76.8441 635.918 77.3793 637.574 78.4535 638.781C79.5238 639.98 81.0004 640.578 82.8754 640.578C83.9262 640.578 84.9262 640.43 85.8754 640.125C86.8207 639.813 87.7856 639.324 88.766 638.656L88.766 642.875Z" fill="#000000" fill-rule="evenodd" opacity="1" stroke="none"/>
<path d="M104.285 632.859C103.847 632.664 103.414 632.515 102.988 632.422C102.57 632.32 102.148 632.265 101.722 632.265C100.461 632.265 99.4918 632.672 98.8161 633.484C98.1364 634.289 97.8005 635.437 97.8005 636.937L97.8005 644L92.9099 644L92.9099 628.688L97.8005 628.688L97.8005 631.203C98.4255 630.203 99.1443 629.477 99.9567 629.016C100.777 628.547 101.757 628.313 102.894 628.313C103.058 628.313 103.238 628.324 103.425 628.344C103.621 628.356 103.902 628.383 104.269 628.422L104.285 632.859Z" fill="#000000" fill-rule="evenodd" opacity="1" stroke="none"/>
<path d="M122 636.297L122 637.703L110.547 637.703C110.672 638.851 111.086 639.711 111.797 640.281C112.504 640.855 113.5 641.141 114.782 641.141C115.813 641.141 116.864 640.992 117.938 640.687C119.02 640.375 120.129 639.914 121.266 639.297L121.266 643.062C120.11 643.5 118.954 643.828 117.797 644.047C116.641 644.273 115.485 644.391 114.328 644.391C111.555 644.391 109.399 643.687 107.86 642.281C106.328 640.875 105.563 638.902 105.563 636.359C105.563 633.859 106.317 631.898 107.828 630.469C109.336 629.031 111.41 628.312 114.047 628.312C116.453 628.312 118.379 629.043 119.828 630.5C121.274 631.949 122 633.883 122 636.297L122 636.297ZM116.969 634.672C116.969 633.746 116.696 633 116.157 632.437C115.614 631.867 114.907 631.578 114.032 631.578C113.082 631.578 112.313 631.844 111.719 632.375C111.125 632.906 110.754 633.672 110.61 634.672L116.969 634.672Z" fill="#000000" fill-rule="evenodd" opacity="1" stroke="none"/>
<path d="M132.566 637.109C131.543 637.109 130.773 637.281 130.254 637.625C129.742 637.969 129.488 638.48 129.488 639.156C129.488 639.781 129.695 640.273 130.113 640.625C130.527 640.969 131.102 641.141 131.832 641.141C132.758 641.141 133.535 640.813 134.16 640.156C134.793 639.492 135.113 638.664 135.113 637.672L135.113 637.109L132.566 637.109ZM140.035 635.266L140.035 644L135.113 644L135.113 641.734C134.457 642.664 133.715 643.34 132.895 643.766C132.07 644.18 131.07 644.391 129.895 644.391C128.309 644.391 127.023 643.934 126.035 643.016C125.043 642.09 124.551 640.887 124.551 639.406C124.551 637.617 125.164 636.305 126.395 635.469C127.633 634.625 129.574 634.203 132.223 634.203L135.113 634.203L135.113 633.812C135.113 633.043 134.805 632.48 134.191 632.125C133.574 631.762 132.621 631.578 131.332 631.578C130.277 631.578 129.301 631.684 128.394 631.891C127.496 632.102 126.664 632.414 125.894 632.828L125.894 629.094C126.934 628.844 127.98 628.652 129.035 628.516C130.098 628.383 131.16 628.312 132.223 628.312C134.98 628.312 136.973 628.859 138.191 629.953C139.418 631.039 140.035 632.809 140.035 635.266Z" fill="#000000" fill-rule="evenodd" opacity="1" stroke="none"/>
<path d="M149.945 624.344L149.945 628.688L154.992 628.688L154.992 632.188L149.945 632.188L149.945 638.688C149.945 639.399 150.086 639.875 150.367 640.125C150.648 640.375 151.203 640.5 152.039 640.5L154.555 640.5L154.555 644L150.367 644C148.43 644 147.055 643.602 146.242 642.797C145.437 641.985 145.039 640.618 145.039 638.688L145.039 632.188L142.617 632.188L142.617 628.688L145.039 628.688L145.039 624.344L149.945 624.344Z" fill="#000000" fill-rule="evenodd" opacity="1" stroke="none"/>
<path d="M173.27 636.297L173.27 637.703L161.817 637.703C161.942 638.851 162.356 639.711 163.067 640.281C163.774 640.855 164.77 641.141 166.051 641.141C167.083 641.141 168.133 640.992 169.208 640.687C170.29 640.375 171.399 639.914 172.536 639.297L172.536 643.062C171.379 643.5 170.223 643.828 169.067 644.047C167.911 644.273 166.754 644.391 165.598 644.391C162.825 644.391 160.668 643.687 159.129 642.281C157.598 640.875 156.832 638.902 156.832 636.359C156.832 633.859 157.586 631.898 159.098 630.469C160.606 629.031 162.68 628.312 165.317 628.312C167.723 628.312 169.649 629.043 171.098 630.5C172.543 631.949 173.27 633.883 173.27 636.297L173.27 636.297ZM168.239 634.672C168.239 633.746 167.965 633 167.426 632.437C166.883 631.867 166.176 631.578 165.301 631.578C164.352 631.578 163.582 631.844 162.989 632.375C162.395 632.906 162.024 633.672 161.879 634.672L168.239 634.672Z" fill="#000000" fill-rule="evenodd" opacity="1" stroke="none"/>
<path d="M187.383 630.922L187.383 622.719L192.305 622.719L192.305 644L187.383 644L187.383 641.781C186.715 642.687 185.977 643.351 185.164 643.765C184.352 644.18 183.407 644.39 182.336 644.39C180.45 644.39 178.903 643.64 177.696 642.14C176.485 640.64 175.883 638.715 175.883 636.359C175.883 633.996 176.485 632.062 177.696 630.562C178.903 629.062 180.45 628.312 182.336 628.312C183.399 628.312 184.336 628.527 185.149 628.953C185.969 629.383 186.715 630.039 187.383 630.922L187.383 630.922ZM184.164 640.844C185.203 640.844 186 640.465 186.555 639.703C187.106 638.934 187.383 637.82 187.383 636.359C187.383 634.902 187.106 633.793 186.555 633.031C186 632.262 185.203 631.875 184.164 631.875C183.121 631.875 182.325 632.262 181.774 633.031C181.219 633.793 180.946 634.902 180.946 636.359C180.946 637.82 181.219 638.934 181.774 639.703C182.325 640.465 183.121 640.844 184.164 640.844Z" fill="#000000" fill-rule="evenodd" opacity="1" stroke="none"/>
<path d="M214.91 640.844C215.961 640.844 216.762 640.465 217.316 639.703C217.867 638.934 218.144 637.82 218.144 636.359C218.144 634.902 217.867 633.793 217.316 633.031C216.762 632.262 215.961 631.875 214.91 631.875C213.855 631.875 213.051 632.262 212.488 633.031C211.934 633.805 211.66 634.914 211.66 636.359C211.66 637.809 211.934 638.918 212.488 639.688C213.051 640.461 213.855 640.844 214.91 640.844L214.91 640.844ZM211.66 630.922C212.336 630.039 213.082 629.383 213.895 628.953C214.715 628.527 215.66 628.312 216.723 628.312C218.617 628.312 220.168 629.062 221.379 630.562C222.586 632.062 223.191 633.996 223.191 636.359C223.191 638.715 222.586 640.641 221.379 642.141C220.168 643.641 218.617 644.391 216.723 644.391C215.66 644.391 214.715 644.18 213.895 643.766C213.082 643.34 212.336 642.68 211.66 641.781L211.66 644L206.77 644L206.77 622.719L211.66 622.719L211.66 630.922Z" fill="#000000" fill-rule="evenodd" opacity="1" stroke="none"/>
<path d="M224.797 628.688L229.687 628.688L233.812 639.079L237.312 628.688L242.203 628.688L235.766 645.454C235.117 647.149 234.363 648.337 233.5 649.017C232.633 649.704 231.5 650.048 230.094 650.048L227.25 650.048L227.25 646.829L228.781 646.829C229.613 646.829 230.219 646.692 230.594 646.423C230.976 646.161 231.273 645.692 231.484 645.016L231.625 644.595L224.797 628.688Z" fill="#000000" fill-rule="evenodd" opacity="1" stroke="none"/>
<path d="M269.234 624.234L269.234 628.546C268.109 628.046 267.008 627.671 265.937 627.421C264.875 627.164 263.867 627.031 262.922 627.031C261.672 627.031 260.742 627.211 260.14 627.562C259.535 627.906 259.234 628.445 259.234 629.172C259.234 629.714 259.437 630.14 259.844 630.453C260.25 630.757 260.984 631.015 262.047 631.234L264.297 631.687C266.566 632.136 268.176 632.828 269.125 633.765C270.082 634.695 270.562 636.011 270.562 637.718C270.562 639.968 269.894 641.648 268.562 642.749C267.226 643.843 265.191 644.39 262.453 644.39C261.148 644.39 259.847 644.265 258.547 644.015C257.242 643.777 255.941 643.417 254.64 642.937L254.64 638.484C255.941 639.183 257.203 639.71 258.422 640.062C259.64 640.406 260.812 640.578 261.937 640.578C263.093 640.578 263.972 640.39 264.578 640.015C265.191 639.632 265.5 639.078 265.5 638.359C265.5 637.726 265.289 637.234 264.875 636.89C264.457 636.546 263.629 636.234 262.39 635.953L260.359 635.515C258.316 635.078 256.82 634.382 255.875 633.421C254.937 632.464 254.469 631.171 254.469 629.546C254.469 627.515 255.125 625.953 256.437 624.859C257.75 623.765 259.633 623.218 262.094 623.218C263.219 623.218 264.367 623.304 265.547 623.468C266.734 623.636 267.961 623.89 269.234 624.234L269.234 624.234Z" fill="#000000" fill-rule="evenodd" opacity="1" stroke="none"/>
<path d="M281.836 637.109C280.813 637.109 280.043 637.281 279.523 637.625C279.012 637.969 278.758 638.48 278.758 639.156C278.758 639.781 278.965 640.273 279.383 640.625C279.797 640.969 280.371 641.141 281.102 641.141C282.027 641.141 282.805 640.813 283.43 640.156C284.063 639.492 284.383 638.664 284.383 637.672L284.383 637.109L281.836 637.109ZM289.305 635.266L289.305 644L284.383 644L284.383 641.734C283.727 642.664 282.984 643.34 282.164 643.766C281.34 644.18 280.34 644.391 279.164 644.391C277.578 644.391 276.293 643.934 275.305 643.016C274.312 642.09 273.82 640.887 273.82 639.406C273.82 637.617 274.434 636.305 275.664 635.469C276.902 634.625 278.844 634.203 281.492 634.203L284.383 634.203L284.383 633.812C284.383 633.043 284.074 632.48 283.461 632.125C282.844 631.762 281.891 631.578 280.602 631.578C279.547 631.578 278.57 631.684 277.664 631.891C276.766 632.102 275.934 632.414 275.164 632.828L275.164 629.094C276.203 628.844 277.25 628.652 278.305 628.516C279.367 628.383 280.43 628.312 281.492 628.312C284.25 628.312 286.242 628.859 287.461 629.953C288.688 631.039 289.305 632.809 289.305 635.266Z" fill="#000000" fill-rule="evenodd" opacity="1" stroke="none"/>
<path d="M309.153 636.297L309.153 637.703L297.7 637.703C297.825 638.851 298.239 639.711 298.95 640.281C299.657 640.855 300.653 641.141 301.934 641.141C302.965 641.141 304.016 640.992 305.09 640.687C306.172 640.375 307.282 639.914 308.418 639.297L308.418 643.062C307.262 643.5 306.106 643.828 304.95 644.047C303.793 644.273 302.637 644.391 301.481 644.391C298.707 644.391 296.551 643.687 295.012 642.281C293.481 640.875 292.715 638.902 292.715 636.359C292.715 633.859 293.469 631.898 294.981 630.469C296.489 629.031 298.563 628.312 301.2 628.312C303.606 628.312 305.532 629.043 306.981 630.5C308.426 631.949 309.153 633.883 309.153 636.297L309.153 636.297ZM304.122 634.672C304.122 633.746 303.848 633 303.309 632.437C302.766 631.867 302.059 631.578 301.184 631.578C300.235 631.578 299.465 631.844 298.872 632.375C298.278 632.906 297.907 633.672 297.762 634.672L304.122 634.672Z" fill="#000000" fill-rule="evenodd" opacity="1" stroke="none"/>
<path d="M322.922 622.719L322.922 625.938L320.219 625.938C319.531 625.938 319.047 626.063 318.766 626.313C318.492 626.563 318.36 627 318.36 627.625L318.36 628.688L322.547 628.688L322.547 632.188L318.36 632.188L318.36 644L313.469 644L313.469 632.188L311.031 632.188L311.031 628.688L313.469 628.688L313.469 627.625C313.469 625.961 313.93 624.727 314.86 623.922C315.785 623.121 317.227 622.719 319.188 622.719L322.922 622.719Z" fill="#000000" fill-rule="evenodd" opacity="1" stroke="none"/>
<path d="M324.871 638.031L324.871 628.687L329.793 628.687L329.793 630.219C329.793 631.055 329.785 632.094 329.777 633.344C329.766 634.594 329.762 635.43 329.762 635.844C329.762 637.086 329.793 637.976 329.855 638.516C329.926 639.058 330.035 639.449 330.184 639.687C330.391 640.012 330.656 640.262 330.98 640.437C331.301 640.605 331.672 640.687 332.09 640.687C333.109 640.687 333.91 640.297 334.496 639.516C335.078 638.734 335.371 637.648 335.371 636.25L335.371 628.687L340.262 628.687L340.262 643.999L335.371 643.999L335.371 641.781C334.629 642.679 333.848 643.339 333.027 643.765C332.203 644.179 331.293 644.39 330.293 644.39C328.531 644.39 327.187 643.851 326.262 642.765C325.332 641.683 324.871 640.105 324.871 638.031L324.871 638.031Z" fill="#000000" fill-rule="evenodd" opacity="1" stroke="none"/>
<path d="M344.977 622.719L349.867 622.719L349.867 644L344.977 644L344.977 622.719Z" fill="#000000" fill-rule="evenodd" opacity="1" stroke="none"/>
<path d="M364.539 623.594L371.227 623.594L375.883 634.516L380.555 623.594L387.242 623.594L387.242 644L382.258 644L382.258 629.062L377.555 640.078L374.227 640.078L369.523 629.062L369.523 644L364.539 644L364.539 623.594Z" fill="#000000" fill-rule="evenodd" opacity="1" stroke="none"/>
<path d="M392.016 638.031L392.016 628.687L396.938 628.687L396.938 630.219C396.938 631.055 396.93 632.094 396.922 633.344C396.91 634.594 396.906 635.43 396.906 635.844C396.906 637.086 396.938 637.976 397 638.516C397.07 639.058 397.18 639.449 397.328 639.687C397.535 640.012 397.801 640.262 398.125 640.437C398.445 640.605 398.816 640.687 399.234 640.687C400.254 640.687 401.055 640.297 401.641 639.516C402.223 638.734 402.516 637.648 402.516 636.25L402.516 628.687L407.406 628.687L407.406 643.999L402.516 643.999L402.516 641.781C401.773 642.679 400.992 643.339 400.172 643.765C399.348 644.179 398.437 644.39 397.437 644.39C395.676 644.39 394.332 643.851 393.406 642.765C392.477 641.683 392.016 640.105 392.016 638.031L392.016 638.031Z" fill="#000000" fill-rule="evenodd" opacity="1" stroke="none"/>
<path d="M424.07 629.172L424.07 632.891C423.027 632.453 422.015 632.125 421.039 631.906C420.058 631.688 419.136 631.578 418.273 631.578C417.343 631.578 416.652 631.695 416.195 631.922C415.746 632.153 415.523 632.512 415.523 633C415.523 633.387 415.695 633.684 416.039 633.891C416.382 634.102 416.996 634.258 417.882 634.36L418.742 634.485C421.25 634.809 422.937 635.336 423.804 636.063C424.668 636.793 425.101 637.934 425.101 639.485C425.101 641.121 424.496 642.352 423.289 643.172C422.09 643.985 420.297 644.391 417.914 644.391C416.89 644.391 415.84 644.313 414.758 644.156C413.683 644 412.578 643.762 411.445 643.438L411.445 639.719C412.414 640.199 413.406 640.559 414.429 640.797C415.461 641.027 416.508 641.141 417.57 641.141C418.527 641.141 419.246 641.012 419.726 640.75C420.203 640.481 420.445 640.086 420.445 639.563C420.445 639.125 420.277 638.805 419.945 638.594C419.609 638.375 418.949 638.211 417.961 638.094L417.101 637.984C414.922 637.715 413.398 637.211 412.523 636.469C411.648 635.731 411.211 634.609 411.211 633.109C411.211 631.484 411.761 630.281 412.867 629.5C413.98 628.711 415.687 628.313 417.992 628.313C418.886 628.313 419.828 628.387 420.82 628.531C421.82 628.668 422.902 628.883 424.07 629.172Z" fill="#000000" fill-rule="evenodd" opacity="1" stroke="none"/>
<path d="M428.785 622.719L433.676 622.719L433.676 644L428.785 644L428.785 622.719Z" fill="#000000" fill-rule="evenodd" opacity="1" stroke="none"/>
<path d="M438.383 628.688L443.273 628.688L443.273 644L438.383 644L438.383 628.688ZM438.383 622.719L443.273 622.719L443.273 626.719L438.383 626.719L438.383 622.719Z" fill="#000000" fill-rule="evenodd" opacity="1" stroke="none"/>
<path d="M462.168 631.234C462.781 630.289 463.516 629.562 464.371 629.062C465.223 628.562 466.16 628.312 467.184 628.312C468.941 628.312 470.281 628.859 471.199 629.953C472.125 631.039 472.59 632.609 472.59 634.672L472.59 644L467.668 644L467.668 636.015L467.668 635.656C467.676 635.523 467.684 635.336 467.684 635.093C467.684 634.011 467.52 633.23 467.199 632.75C466.887 632.261 466.375 632.015 465.668 632.015C464.738 632.015 464.02 632.402 463.512 633.171C463 633.933 462.738 635.039 462.731 636.484L462.731 643.999L457.809 643.999L457.809 636.015C457.809 634.32 457.66 633.23 457.371 632.749C457.078 632.261 456.559 632.015 455.809 632.015C454.871 632.015 454.145 632.402 453.637 633.171C453.125 633.933 452.871 635.031 452.871 636.468L452.871 643.999L447.949 643.999L447.949 628.687L452.871 628.687L452.871 630.922C453.473 630.058 454.16 629.406 454.934 628.969C455.715 628.531 456.574 628.312 457.512 628.312C458.574 628.312 459.512 628.57 460.324 629.078C461.137 629.59 461.75 630.309 462.168 631.234L462.168 631.234Z" fill="#000000" fill-rule="evenodd" opacity="1" stroke="none"/>
<path d="M82.422 650.719L82.422 653.938L79.7189 653.938C79.0314 653.938 78.547 654.063 78.2658 654.313C77.9924 654.563 77.8595 655 77.8595 655.625L77.8595 656.688L82.047 656.688L82.047 660.188L77.8595 660.188L77.8595 672L72.9689 672L72.9689 660.188L70.5314 660.188L70.5314 656.688L72.9689 656.688L72.9689 655.625C72.9689 653.961 73.4299 652.727 74.3595 651.922C75.2853 651.121 76.7267 650.719 78.6876 650.719L82.422 650.719Z" fill="#000000" fill-rule="evenodd" opacity="1" stroke="none"/>
<path d="M95.9176 660.859C95.4801 660.664 95.0465 660.515 94.6207 660.422C94.2027 660.32 93.7809 660.265 93.3551 660.265C92.0934 660.265 91.1246 660.672 90.4489 661.484C89.7692 662.289 89.4333 663.437 89.4333 664.937L89.4333 672L84.5427 672L84.5427 656.688L89.4333 656.688L89.4333 659.203C90.0583 658.203 90.7771 657.477 91.5895 657.016C92.4098 656.547 93.3903 656.313 94.527 656.313C94.6911 656.313 94.8707 656.324 95.0582 656.344C95.2536 656.356 95.5348 656.383 95.902 656.422L95.9176 660.859Z" fill="#000000" fill-rule="evenodd" opacity="1" stroke="none"/>
<path d="M105.633 659.812C104.547 659.812 103.719 660.203 103.148 660.984C102.574 661.765 102.289 662.89 102.289 664.359C102.289 665.828 102.574 666.953 103.148 667.734C103.719 668.507 104.547 668.89 105.633 668.89C106.695 668.89 107.508 668.507 108.07 667.734C108.641 666.953 108.93 665.828 108.93 664.359C108.93 662.89 108.641 661.765 108.07 660.984C107.508 660.203 106.695 659.812 105.633 659.812ZM105.633 656.312C108.266 656.312 110.324 657.027 111.805 658.453C113.281 659.871 114.023 661.839 114.023 664.359C114.023 666.871 113.281 668.839 111.805 670.265C110.324 671.683 108.266 672.39 105.633 672.39C102.984 672.39 100.918 671.683 99.4297 670.265C97.9375 668.839 97.1953 666.871 97.1953 664.359C97.1953 661.839 97.9375 659.871 99.4297 658.453C100.918 657.027 102.984 656.312 105.633 656.312Z" fill="#000000" fill-rule="evenodd" opacity="1" stroke="none"/>
<path d="M131.774 659.234C132.387 658.289 133.121 657.562 133.977 657.062C134.828 656.562 135.766 656.312 136.789 656.312C138.547 656.312 139.887 656.859 140.805 657.953C141.731 659.039 142.195 660.609 142.195 662.672L142.195 672L137.273 672L137.273 664.015L137.273 663.656C137.281 663.523 137.289 663.336 137.289 663.093C137.289 662.011 137.125 661.23 136.805 660.75C136.492 660.261 135.98 660.015 135.274 660.015C134.344 660.015 133.625 660.402 133.117 661.171C132.606 661.933 132.344 663.039 132.336 664.484L132.336 671.999L127.414 671.999L127.414 664.015C127.414 662.32 127.266 661.23 126.977 660.749C126.684 660.261 126.164 660.015 125.414 660.015C124.477 660.015 123.75 660.402 123.242 661.171C122.731 661.933 122.477 663.031 122.477 664.468L122.477 671.999L117.555 671.999L117.555 656.687L122.477 656.687L122.477 658.922C123.078 658.058 123.766 657.406 124.539 656.969C125.32 656.531 126.18 656.312 127.117 656.312C128.18 656.312 129.117 656.57 129.93 657.078C130.742 657.59 131.356 658.309 131.774 659.234L131.774 659.234Z" fill="#000000" fill-rule="evenodd" opacity="1" stroke="none"/>
<path d="M161.855 652.344L161.855 656.688L166.902 656.688L166.902 660.188L161.855 660.188L161.855 666.688C161.855 667.399 161.996 667.875 162.277 668.125C162.559 668.375 163.113 668.5 163.949 668.5L166.465 668.5L166.465 672L162.277 672C160.34 672 158.965 671.602 158.152 670.797C157.348 669.985 156.949 668.618 156.949 666.688L156.949 660.188L154.527 660.188L154.527 656.688L156.949 656.688L156.949 652.344L161.855 652.344Z" fill="#000000" fill-rule="evenodd" opacity="1" stroke="none"/>
<path d="M185.285 662.672L185.285 672L180.363 672L180.363 664.891C180.363 663.547 180.332 662.625 180.27 662.125C180.207 661.625 180.102 661.258 179.957 661.016C179.77 660.703 179.508 660.461 179.176 660.281C178.852 660.105 178.48 660.016 178.066 660.016C177.043 660.016 176.242 660.414 175.66 661.203C175.074 661.984 174.785 663.074 174.785 664.469L174.785 672L169.895 672L169.895 650.719L174.785 650.719L174.785 658.922C175.523 658.039 176.305 657.383 177.129 656.953C177.961 656.527 178.879 656.313 179.879 656.313C181.648 656.313 182.992 656.859 183.91 657.953C184.824 659.039 185.285 660.609 185.285 662.672Z" fill="#000000" fill-rule="evenodd" opacity="1" stroke="none"/>
<path d="M205.11 664.297L205.11 665.703L193.657 665.703C193.782 666.851 194.196 667.711 194.907 668.281C195.614 668.855 196.61 669.141 197.891 669.141C198.922 669.141 199.973 668.992 201.047 668.687C202.129 668.375 203.239 667.914 204.375 667.297L204.375 671.062C203.219 671.5 202.063 671.828 200.907 672.047C199.75 672.273 198.594 672.391 197.438 672.391C194.664 672.391 192.508 671.687 190.969 670.281C189.438 668.875 188.672 666.902 188.672 664.359C188.672 661.859 189.426 659.898 190.938 658.469C192.446 657.031 194.52 656.312 197.157 656.312C199.563 656.312 201.489 657.043 202.938 658.5C204.383 659.949 205.11 661.883 205.11 664.297L205.11 664.297ZM200.079 662.672C200.079 661.746 199.805 661 199.266 660.437C198.723 659.867 198.016 659.578 197.141 659.578C196.192 659.578 195.422 659.844 194.829 660.375C194.235 660.906 193.864 661.672 193.719 662.672L200.079 662.672Z" fill="#000000" fill-rule="evenodd" opacity="1" stroke="none"/>
<path d="M218.785 651.594L224.66 651.594L232.082 665.594L232.082 651.594L237.066 651.594L237.066 672L231.191 672L223.77 658L223.77 672L218.785 672L218.785 651.594Z" fill="#000000" fill-rule="evenodd" opacity="1" stroke="none"/>
<path d="M249.281 659.812C248.195 659.812 247.367 660.203 246.797 660.984C246.223 661.765 245.937 662.89 245.937 664.359C245.937 665.828 246.223 666.953 246.797 667.734C247.367 668.507 248.195 668.89 249.281 668.89C250.344 668.89 251.156 668.507 251.719 667.734C252.289 666.953 252.578 665.828 252.578 664.359C252.578 662.89 252.289 661.765 251.719 660.984C251.156 660.203 250.344 659.812 249.281 659.812ZM249.281 656.312C251.914 656.312 253.973 657.027 255.453 658.453C256.93 659.871 257.672 661.839 257.672 664.359C257.672 666.871 256.93 668.839 255.453 670.265C253.973 671.683 251.914 672.39 249.281 672.39C246.633 672.39 244.566 671.683 243.078 670.265C241.586 668.839 240.844 666.871 240.844 664.359C240.844 661.839 241.586 659.871 243.078 658.453C244.566 657.027 246.633 656.312 249.281 656.312Z" fill="#000000" fill-rule="evenodd" opacity="1" stroke="none"/>
<path d="M261.066 666.031L261.066 656.687L265.988 656.687L265.988 658.219C265.988 659.055 265.98 660.094 265.973 661.344C265.961 662.594 265.957 663.43 265.957 663.844C265.957 665.086 265.988 665.976 266.051 666.516C266.121 667.058 266.23 667.449 266.379 667.687C266.586 668.012 266.852 668.262 267.176 668.437C267.496 668.605 267.867 668.687 268.285 668.687C269.305 668.687 270.106 668.297 270.691 667.516C271.273 666.734 271.566 665.648 271.566 664.25L271.566 656.687L276.457 656.687L276.457 671.999L271.566 671.999L271.566 669.781C270.824 670.679 270.043 671.339 269.223 671.765C268.398 672.179 267.488 672.39 266.488 672.39C264.727 672.39 263.383 671.851 262.457 670.765C261.527 669.683 261.066 668.105 261.066 666.031L261.066 666.031Z" fill="#000000" fill-rule="evenodd" opacity="1" stroke="none"/>
<path d="M296.562 662.672L296.562 672L291.641 672L291.641 664.859C291.641 663.539 291.609 662.625 291.547 662.125C291.484 661.625 291.379 661.258 291.234 661.016C291.047 660.703 290.785 660.461 290.453 660.281C290.129 660.105 289.758 660.016 289.344 660.016C288.32 660.016 287.52 660.414 286.938 661.203C286.352 661.984 286.063 663.074 286.063 664.469L286.063 672L281.172 672L281.172 656.688L286.063 656.688L286.063 658.922C286.801 658.039 287.582 657.383 288.406 656.953C289.238 656.528 290.156 656.313 291.156 656.313C292.926 656.313 294.27 656.86 295.188 657.953C296.102 659.039 296.563 660.61 296.563 662.672L296.562 662.672Z" fill="#000000" fill-rule="evenodd" opacity="1" stroke="none"/>
<path d="M311.07 651.594L319.805 651.594C322.398 651.594 324.387 652.172 325.773 653.328C327.168 654.477 327.867 656.117 327.867 658.25C327.867 660.387 327.168 662.031 325.773 663.188C324.387 664.344 322.398 664.922 319.805 664.922L316.32 664.922L316.32 672L311.07 672L311.07 651.594ZM316.32 655.406L316.32 661.11L319.242 661.11C320.262 661.11 321.047 660.86 321.602 660.36C322.164 659.86 322.445 659.157 322.445 658.25C322.445 657.336 322.164 656.633 321.602 656.141C321.047 655.653 320.262 655.406 319.242 655.406L316.32 655.406Z" fill="#000000" fill-rule="evenodd" opacity="1" stroke="none"/>
<path d="M342.75 660.859C342.312 660.664 341.879 660.515 341.453 660.422C341.035 660.32 340.613 660.265 340.187 660.265C338.925 660.265 337.957 660.672 337.281 661.484C336.601 662.289 336.265 663.437 336.265 664.937L336.265 672L331.375 672L331.375 656.688L336.265 656.688L336.265 659.203C336.89 658.203 337.609 657.477 338.422 657.016C339.242 656.547 340.222 656.313 341.359 656.313C341.523 656.313 341.703 656.324 341.89 656.344C342.086 656.356 342.367 656.383 342.734 656.422L342.75 660.859Z" fill="#000000" fill-rule="evenodd" opacity="1" stroke="none"/>
<path d="M352.461 659.812C351.375 659.812 350.547 660.203 349.977 660.984C349.402 661.765 349.117 662.89 349.117 664.359C349.117 665.828 349.402 666.953 349.977 667.734C350.547 668.507 351.375 668.89 352.461 668.89C353.523 668.89 354.336 668.507 354.898 667.734C355.469 666.953 355.758 665.828 355.758 664.359C355.758 662.89 355.469 661.765 354.898 660.984C354.336 660.203 353.523 659.812 352.461 659.812ZM352.461 656.312C355.094 656.312 357.152 657.027 358.633 658.453C360.109 659.871 360.852 661.839 360.852 664.359C360.852 666.871 360.109 668.839 358.633 670.265C357.152 671.683 355.094 672.39 352.461 672.39C349.813 672.39 347.746 671.683 346.258 670.265C344.766 668.839 344.023 666.871 344.023 664.359C344.023 661.839 344.766 659.871 346.258 658.453C347.746 657.027 349.813 656.312 352.461 656.312Z" fill="#000000" fill-rule="evenodd" opacity="1" stroke="none"/>
<path d="M364.418 656.688L369.309 656.688L369.309 671.719C369.309 673.77 368.813 675.336 367.824 676.422C366.844 677.504 365.418 678.047 363.543 678.047L361.121 678.047L361.121 674.828L361.98 674.828C362.906 674.828 363.543 674.617 363.887 674.203C364.238 673.785 364.418 672.957 364.418 671.719L364.418 656.688ZM364.418 650.719L369.309 650.719L369.309 654.719L364.418 654.719L364.418 650.719Z" fill="#000000" fill-rule="evenodd" opacity="1" stroke="none"/>
<path d="M389.297 664.297L389.297 665.703L377.844 665.703C377.969 666.851 378.383 667.711 379.094 668.281C379.801 668.855 380.797 669.141 382.079 669.141C383.11 669.141 384.161 668.992 385.235 668.687C386.317 668.375 387.426 667.914 388.563 667.297L388.563 671.062C387.407 671.5 386.25 671.828 385.094 672.047C383.938 672.273 382.782 672.391 381.625 672.391C378.852 672.391 376.696 671.687 375.157 670.281C373.625 668.875 372.86 666.902 372.86 664.359C372.86 661.859 373.614 659.898 375.125 658.469C376.633 657.031 378.707 656.312 381.344 656.312C383.75 656.312 385.676 657.043 387.125 658.5C388.571 659.949 389.297 661.883 389.297 664.297L389.297 664.297ZM384.266 662.672C384.266 661.746 383.993 661 383.454 660.437C382.911 659.867 382.204 659.578 381.329 659.578C380.379 659.578 379.61 659.844 379.016 660.375C378.422 660.906 378.051 661.672 377.907 662.672L384.266 662.672Z" fill="#000000" fill-rule="evenodd" opacity="1" stroke="none"/>
<path d="M405.367 657.172L405.367 661.156C404.711 660.699 404.043 660.36 403.367 660.141C402.699 659.922 402.008 659.813 401.289 659.813C399.922 659.813 398.856 660.215 398.086 661.016C397.325 661.809 396.946 662.922 396.946 664.36C396.946 665.789 397.325 666.903 398.086 667.703C398.856 668.496 399.922 668.891 401.289 668.891C402.047 668.891 402.774 668.782 403.461 668.563C404.149 668.336 404.782 667.996 405.367 667.547L405.367 671.547C404.606 671.828 403.828 672.035 403.039 672.172C402.258 672.317 401.465 672.391 400.664 672.391C397.903 672.391 395.742 671.684 394.18 670.266C392.625 668.852 391.852 666.883 391.852 664.36C391.852 661.829 392.625 659.856 394.18 658.438C395.742 657.024 397.903 656.313 400.664 656.313C401.465 656.313 402.258 656.387 403.039 656.532C403.821 656.668 404.594 656.883 405.367 657.172L405.367 657.172Z" fill="#000000" fill-rule="evenodd" opacity="1" stroke="none"/>
<path d="M414.945 652.344L414.945 656.688L419.992 656.688L419.992 660.188L414.945 660.188L414.945 666.688C414.945 667.399 415.086 667.875 415.367 668.125C415.648 668.375 416.203 668.5 417.039 668.5L419.555 668.5L419.555 672L415.367 672C413.43 672 412.055 671.602 411.242 670.797C410.437 669.985 410.039 668.618 410.039 666.688L410.039 660.188L407.617 660.188L407.617 656.688L410.039 656.688L410.039 652.344L414.945 652.344Z" fill="#000000" fill-rule="evenodd" opacity="1" stroke="none"/>
</g>
</g>
</svg>
